<mxfile host="app.diagrams.net" modified="2024-06-19T05:04:31.148Z" agent="Mozilla/5.0 (X11; Linux x86_64) AppleWebKit/537.36 (KHTML, like Gecko) Chrome/126.0.0.0 Safari/537.36" etag="AL9SlHeVzhf6hrMwRkEQ" version="24.5.5" type="github">
  <diagram id="C5RBs43oDa-KdzZeNtuy" name="Page-1">
    <mxGraphModel dx="1707" dy="442" grid="1" gridSize="10" guides="1" tooltips="1" connect="1" arrows="1" fold="1" page="1" pageScale="1" pageWidth="827" pageHeight="1169" math="0" shadow="0">
      <root>
        <mxCell id="WIyWlLk6GJQsqaUBKTNV-0" />
        <mxCell id="WIyWlLk6GJQsqaUBKTNV-1" parent="WIyWlLk6GJQsqaUBKTNV-0" />
        <mxCell id="hhsTLVZIg2dpdE67HO9M-84" style="edgeStyle=orthogonalEdgeStyle;rounded=0;orthogonalLoop=1;jettySize=auto;html=1;entryX=0.5;entryY=1;entryDx=0;entryDy=0;" parent="WIyWlLk6GJQsqaUBKTNV-1" source="zkfFHV4jXpPFQw0GAbJ--0" target="hhsTLVZIg2dpdE67HO9M-10" edge="1">
          <mxGeometry relative="1" as="geometry" />
        </mxCell>
        <mxCell id="zkfFHV4jXpPFQw0GAbJ--0" value="Customer" style="swimlane;fontStyle=2;align=center;verticalAlign=top;childLayout=stackLayout;horizontal=1;startSize=26;horizontalStack=0;resizeParent=1;resizeLast=0;collapsible=1;marginBottom=0;rounded=0;shadow=0;strokeWidth=1;" parent="WIyWlLk6GJQsqaUBKTNV-1" vertex="1">
          <mxGeometry x="480" y="420" width="170" height="250" as="geometry">
            <mxRectangle x="324" y="240" width="160" height="26" as="alternateBounds" />
          </mxGeometry>
        </mxCell>
        <mxCell id="zkfFHV4jXpPFQw0GAbJ--2" value="Name : VARCHAR" style="text;align=left;verticalAlign=top;spacingLeft=4;spacingRight=4;overflow=hidden;rotatable=0;points=[[0,0.5],[1,0.5]];portConstraint=eastwest;rounded=0;shadow=0;html=0;" parent="zkfFHV4jXpPFQw0GAbJ--0" vertex="1">
          <mxGeometry y="26" width="170" height="26" as="geometry" />
        </mxCell>
        <mxCell id="hhsTLVZIg2dpdE67HO9M-1" value="&amp;nbsp;Address : VARCHAR" style="rounded=0;whiteSpace=wrap;html=1;align=left;" parent="zkfFHV4jXpPFQw0GAbJ--0" vertex="1">
          <mxGeometry y="52" width="170" height="28" as="geometry" />
        </mxCell>
        <mxCell id="hhsTLVZIg2dpdE67HO9M-2" value="&amp;nbsp;Phone : Int" style="rounded=0;whiteSpace=wrap;html=1;align=left;" parent="zkfFHV4jXpPFQw0GAbJ--0" vertex="1">
          <mxGeometry y="80" width="170" height="20" as="geometry" />
        </mxCell>
        <mxCell id="zkfFHV4jXpPFQw0GAbJ--3" value="Email : VARCHAR" style="text;align=left;verticalAlign=top;spacingLeft=4;spacingRight=4;overflow=hidden;rotatable=0;points=[[0,0.5],[1,0.5]];portConstraint=eastwest;rounded=0;shadow=0;html=0;" parent="zkfFHV4jXpPFQw0GAbJ--0" vertex="1">
          <mxGeometry y="100" width="170" height="26" as="geometry" />
        </mxCell>
        <mxCell id="zkfFHV4jXpPFQw0GAbJ--4" value="" style="line;html=1;strokeWidth=1;align=left;verticalAlign=middle;spacingTop=-1;spacingLeft=3;spacingRight=3;rotatable=0;labelPosition=right;points=[];portConstraint=eastwest;" parent="zkfFHV4jXpPFQw0GAbJ--0" vertex="1">
          <mxGeometry y="126" width="170" height="8" as="geometry" />
        </mxCell>
        <mxCell id="zkfFHV4jXpPFQw0GAbJ--5" value="*customerId (PK) : Int" style="text;align=left;verticalAlign=top;spacingLeft=4;spacingRight=4;overflow=hidden;rotatable=0;points=[[0,0.5],[1,0.5]];portConstraint=eastwest;" parent="zkfFHV4jXpPFQw0GAbJ--0" vertex="1">
          <mxGeometry y="134" width="170" height="26" as="geometry" />
        </mxCell>
        <mxCell id="hhsTLVZIg2dpdE67HO9M-0" value="Type(INdividual,Commercial,&#xa;Residential) : VARCHAR" style="text;align=left;verticalAlign=top;spacingLeft=4;spacingRight=4;overflow=hidden;rotatable=0;points=[[0,0.5],[1,0.5]];portConstraint=eastwest;" parent="zkfFHV4jXpPFQw0GAbJ--0" vertex="1">
          <mxGeometry y="160" width="170" height="46" as="geometry" />
        </mxCell>
        <mxCell id="hhsTLVZIg2dpdE67HO9M-10" value="Donation" style="swimlane;fontStyle=2;align=center;verticalAlign=top;childLayout=stackLayout;horizontal=1;startSize=26;horizontalStack=0;resizeParent=1;resizeLast=0;collapsible=1;marginBottom=0;rounded=0;shadow=0;strokeWidth=1;" parent="WIyWlLk6GJQsqaUBKTNV-1" vertex="1">
          <mxGeometry x="480" y="20" width="160" height="200" as="geometry">
            <mxRectangle x="324" y="240" width="160" height="26" as="alternateBounds" />
          </mxGeometry>
        </mxCell>
        <mxCell id="hhsTLVZIg2dpdE67HO9M-11" value="DonationAmount : Float" style="text;align=left;verticalAlign=top;spacingLeft=4;spacingRight=4;overflow=hidden;rotatable=0;points=[[0,0.5],[1,0.5]];portConstraint=eastwest;rounded=0;shadow=0;html=0;" parent="hhsTLVZIg2dpdE67HO9M-10" vertex="1">
          <mxGeometry y="26" width="160" height="26" as="geometry" />
        </mxCell>
        <mxCell id="hhsTLVZIg2dpdE67HO9M-12" value="DonationReceipt : VARCHAR" style="rounded=0;whiteSpace=wrap;html=1;align=left;" parent="hhsTLVZIg2dpdE67HO9M-10" vertex="1">
          <mxGeometry y="52" width="160" height="28" as="geometry" />
        </mxCell>
        <mxCell id="hhsTLVZIg2dpdE67HO9M-17" value="" style="line;html=1;strokeWidth=1;align=left;verticalAlign=middle;spacingTop=-1;spacingLeft=3;spacingRight=3;rotatable=0;labelPosition=right;points=[];portConstraint=eastwest;" parent="hhsTLVZIg2dpdE67HO9M-10" vertex="1">
          <mxGeometry y="80" width="160" height="8" as="geometry" />
        </mxCell>
        <mxCell id="hhsTLVZIg2dpdE67HO9M-18" value="*DonationId (PK) : Int" style="text;align=left;verticalAlign=top;spacingLeft=4;spacingRight=4;overflow=hidden;rotatable=0;points=[[0,0.5],[1,0.5]];portConstraint=eastwest;" parent="hhsTLVZIg2dpdE67HO9M-10" vertex="1">
          <mxGeometry y="88" width="160" height="26" as="geometry" />
        </mxCell>
        <mxCell id="hhsTLVZIg2dpdE67HO9M-19" value="*CustomerId(FK): Int" style="text;align=left;verticalAlign=top;spacingLeft=4;spacingRight=4;overflow=hidden;rotatable=0;points=[[0,0.5],[1,0.5]];portConstraint=eastwest;" parent="hhsTLVZIg2dpdE67HO9M-10" vertex="1">
          <mxGeometry y="114" width="160" height="36" as="geometry" />
        </mxCell>
        <mxCell id="hhsTLVZIg2dpdE67HO9M-20" value="*CharityId(FK): Int" style="text;align=left;verticalAlign=top;spacingLeft=4;spacingRight=4;overflow=hidden;rotatable=0;points=[[0,0.5],[1,0.5]];portConstraint=eastwest;" parent="hhsTLVZIg2dpdE67HO9M-10" vertex="1">
          <mxGeometry y="150" width="160" height="36" as="geometry" />
        </mxCell>
        <mxCell id="hhsTLVZIg2dpdE67HO9M-108" style="edgeStyle=orthogonalEdgeStyle;rounded=0;orthogonalLoop=1;jettySize=auto;html=1;entryX=0.5;entryY=1;entryDx=0;entryDy=0;" parent="WIyWlLk6GJQsqaUBKTNV-1" source="hhsTLVZIg2dpdE67HO9M-21" target="hhsTLVZIg2dpdE67HO9M-36" edge="1">
          <mxGeometry relative="1" as="geometry" />
        </mxCell>
        <mxCell id="hhsTLVZIg2dpdE67HO9M-21" value="Truck" style="swimlane;fontStyle=2;align=center;verticalAlign=top;childLayout=stackLayout;horizontal=1;startSize=26;horizontalStack=0;resizeParent=1;resizeLast=0;collapsible=1;marginBottom=0;rounded=0;shadow=0;strokeWidth=1;" parent="WIyWlLk6GJQsqaUBKTNV-1" vertex="1">
          <mxGeometry x="-100" y="758" width="160" height="186" as="geometry">
            <mxRectangle x="324" y="240" width="160" height="26" as="alternateBounds" />
          </mxGeometry>
        </mxCell>
        <mxCell id="hhsTLVZIg2dpdE67HO9M-22" value="Capacity : Float" style="text;align=left;verticalAlign=top;spacingLeft=4;spacingRight=4;overflow=hidden;rotatable=0;points=[[0,0.5],[1,0.5]];portConstraint=eastwest;rounded=0;shadow=0;html=0;" parent="hhsTLVZIg2dpdE67HO9M-21" vertex="1">
          <mxGeometry y="26" width="160" height="26" as="geometry" />
        </mxCell>
        <mxCell id="hhsTLVZIg2dpdE67HO9M-23" value="&amp;nbsp;Availability : bool" style="rounded=0;whiteSpace=wrap;html=1;align=left;" parent="hhsTLVZIg2dpdE67HO9M-21" vertex="1">
          <mxGeometry y="52" width="160" height="28" as="geometry" />
        </mxCell>
        <mxCell id="hhsTLVZIg2dpdE67HO9M-24" value="" style="line;html=1;strokeWidth=1;align=left;verticalAlign=middle;spacingTop=-1;spacingLeft=3;spacingRight=3;rotatable=0;labelPosition=right;points=[];portConstraint=eastwest;" parent="hhsTLVZIg2dpdE67HO9M-21" vertex="1">
          <mxGeometry y="80" width="160" height="8" as="geometry" />
        </mxCell>
        <mxCell id="hhsTLVZIg2dpdE67HO9M-25" value="*TruckId (PK) : Int" style="text;align=left;verticalAlign=top;spacingLeft=4;spacingRight=4;overflow=hidden;rotatable=0;points=[[0,0.5],[1,0.5]];portConstraint=eastwest;" parent="hhsTLVZIg2dpdE67HO9M-21" vertex="1">
          <mxGeometry y="88" width="160" height="26" as="geometry" />
        </mxCell>
        <mxCell id="hhsTLVZIg2dpdE67HO9M-26" value="*DRiverId(FK): Int" style="text;align=left;verticalAlign=top;spacingLeft=4;spacingRight=4;overflow=hidden;rotatable=0;points=[[0,0.5],[1,0.5]];portConstraint=eastwest;" parent="hhsTLVZIg2dpdE67HO9M-21" vertex="1">
          <mxGeometry y="114" width="160" height="36" as="geometry" />
        </mxCell>
        <mxCell id="hhsTLVZIg2dpdE67HO9M-27" value="*RouteId(FK): Int" style="text;align=left;verticalAlign=top;spacingLeft=4;spacingRight=4;overflow=hidden;rotatable=0;points=[[0,0.5],[1,0.5]];portConstraint=eastwest;" parent="hhsTLVZIg2dpdE67HO9M-21" vertex="1">
          <mxGeometry y="150" width="160" height="36" as="geometry" />
        </mxCell>
        <mxCell id="hhsTLVZIg2dpdE67HO9M-28" value="Bin" style="swimlane;fontStyle=2;align=center;verticalAlign=top;childLayout=stackLayout;horizontal=1;startSize=26;horizontalStack=0;resizeParent=1;resizeLast=0;collapsible=1;marginBottom=0;rounded=0;shadow=0;strokeWidth=1;" parent="WIyWlLk6GJQsqaUBKTNV-1" vertex="1">
          <mxGeometry x="340" y="766" width="130" height="200" as="geometry">
            <mxRectangle x="324" y="240" width="160" height="26" as="alternateBounds" />
          </mxGeometry>
        </mxCell>
        <mxCell id="hhsTLVZIg2dpdE67HO9M-29" value="Size : Float" style="text;align=left;verticalAlign=top;spacingLeft=4;spacingRight=4;overflow=hidden;rotatable=0;points=[[0,0.5],[1,0.5]];portConstraint=eastwest;rounded=0;shadow=0;html=0;" parent="hhsTLVZIg2dpdE67HO9M-28" vertex="1">
          <mxGeometry y="26" width="130" height="26" as="geometry" />
        </mxCell>
        <mxCell id="hhsTLVZIg2dpdE67HO9M-30" value="&amp;nbsp;Status : VARCHAR" style="rounded=0;whiteSpace=wrap;html=1;align=left;" parent="hhsTLVZIg2dpdE67HO9M-28" vertex="1">
          <mxGeometry y="52" width="130" height="28" as="geometry" />
        </mxCell>
        <mxCell id="hhsTLVZIg2dpdE67HO9M-31" value="" style="line;html=1;strokeWidth=1;align=left;verticalAlign=middle;spacingTop=-1;spacingLeft=3;spacingRight=3;rotatable=0;labelPosition=right;points=[];portConstraint=eastwest;" parent="hhsTLVZIg2dpdE67HO9M-28" vertex="1">
          <mxGeometry y="80" width="130" height="20" as="geometry" />
        </mxCell>
        <mxCell id="hhsTLVZIg2dpdE67HO9M-32" value="*BinId (PK) : Int" style="text;align=left;verticalAlign=top;spacingLeft=4;spacingRight=4;overflow=hidden;rotatable=0;points=[[0,0.5],[1,0.5]];portConstraint=eastwest;" parent="hhsTLVZIg2dpdE67HO9M-28" vertex="1">
          <mxGeometry y="100" width="130" height="26" as="geometry" />
        </mxCell>
        <mxCell id="hhsTLVZIg2dpdE67HO9M-33" value="*CustomerId(FK): Int" style="text;align=left;verticalAlign=top;spacingLeft=4;spacingRight=4;overflow=hidden;rotatable=0;points=[[0,0.5],[1,0.5]];portConstraint=eastwest;" parent="hhsTLVZIg2dpdE67HO9M-28" vertex="1">
          <mxGeometry y="126" width="130" height="36" as="geometry" />
        </mxCell>
        <mxCell id="hhsTLVZIg2dpdE67HO9M-43" value="*RouteId(FK): Int" style="text;align=left;verticalAlign=top;spacingLeft=4;spacingRight=4;overflow=hidden;rotatable=0;points=[[0,0.5],[1,0.5]];portConstraint=eastwest;" parent="hhsTLVZIg2dpdE67HO9M-28" vertex="1">
          <mxGeometry y="162" width="130" height="36" as="geometry" />
        </mxCell>
        <mxCell id="hhsTLVZIg2dpdE67HO9M-36" value="Collection Route" style="swimlane;fontStyle=2;align=center;verticalAlign=top;childLayout=stackLayout;horizontal=1;startSize=26;horizontalStack=0;resizeParent=1;resizeLast=0;collapsible=1;marginBottom=0;rounded=0;shadow=0;strokeWidth=1;" parent="WIyWlLk6GJQsqaUBKTNV-1" vertex="1">
          <mxGeometry x="-60" y="428" width="150" height="162" as="geometry">
            <mxRectangle x="324" y="240" width="160" height="26" as="alternateBounds" />
          </mxGeometry>
        </mxCell>
        <mxCell id="hhsTLVZIg2dpdE67HO9M-37" value="StartLocation : VARCHAR" style="text;align=left;verticalAlign=top;spacingLeft=4;spacingRight=4;overflow=hidden;rotatable=0;points=[[0,0.5],[1,0.5]];portConstraint=eastwest;rounded=0;shadow=0;html=0;" parent="hhsTLVZIg2dpdE67HO9M-36" vertex="1">
          <mxGeometry y="26" width="150" height="26" as="geometry" />
        </mxCell>
        <mxCell id="hhsTLVZIg2dpdE67HO9M-38" value="&amp;nbsp;EndLocation ; VARCHAR" style="rounded=0;whiteSpace=wrap;html=1;align=left;" parent="hhsTLVZIg2dpdE67HO9M-36" vertex="1">
          <mxGeometry y="52" width="150" height="28" as="geometry" />
        </mxCell>
        <mxCell id="hhsTLVZIg2dpdE67HO9M-40" value="" style="line;html=1;strokeWidth=1;align=left;verticalAlign=middle;spacingTop=-1;spacingLeft=3;spacingRight=3;rotatable=0;labelPosition=right;points=[];portConstraint=eastwest;" parent="hhsTLVZIg2dpdE67HO9M-36" vertex="1">
          <mxGeometry y="80" width="150" height="20" as="geometry" />
        </mxCell>
        <mxCell id="hhsTLVZIg2dpdE67HO9M-41" value="*RouteId (PK) : Int" style="text;align=left;verticalAlign=top;spacingLeft=4;spacingRight=4;overflow=hidden;rotatable=0;points=[[0,0.5],[1,0.5]];portConstraint=eastwest;" parent="hhsTLVZIg2dpdE67HO9M-36" vertex="1">
          <mxGeometry y="100" width="150" height="26" as="geometry" />
        </mxCell>
        <mxCell id="hhsTLVZIg2dpdE67HO9M-42" value="*TruckId(FK): Int" style="text;align=left;verticalAlign=top;spacingLeft=4;spacingRight=4;overflow=hidden;rotatable=0;points=[[0,0.5],[1,0.5]];portConstraint=eastwest;" parent="hhsTLVZIg2dpdE67HO9M-36" vertex="1">
          <mxGeometry y="126" width="150" height="36" as="geometry" />
        </mxCell>
        <mxCell id="hhsTLVZIg2dpdE67HO9M-44" value="Charity" style="swimlane;fontStyle=2;align=center;verticalAlign=top;childLayout=stackLayout;horizontal=1;startSize=26;horizontalStack=0;resizeParent=1;resizeLast=0;collapsible=1;marginBottom=0;rounded=0;shadow=0;strokeWidth=1;" parent="WIyWlLk6GJQsqaUBKTNV-1" vertex="1">
          <mxGeometry x="864" y="40" width="136" height="140" as="geometry">
            <mxRectangle x="324" y="240" width="160" height="26" as="alternateBounds" />
          </mxGeometry>
        </mxCell>
        <mxCell id="hhsTLVZIg2dpdE67HO9M-45" value="Name : VARCHAR" style="text;align=left;verticalAlign=top;spacingLeft=4;spacingRight=4;overflow=hidden;rotatable=0;points=[[0,0.5],[1,0.5]];portConstraint=eastwest;rounded=0;shadow=0;html=0;" parent="hhsTLVZIg2dpdE67HO9M-44" vertex="1">
          <mxGeometry y="26" width="136" height="26" as="geometry" />
        </mxCell>
        <mxCell id="hhsTLVZIg2dpdE67HO9M-46" value="&amp;nbsp;Description : VARCHAR" style="rounded=0;whiteSpace=wrap;html=1;align=left;" parent="hhsTLVZIg2dpdE67HO9M-44" vertex="1">
          <mxGeometry y="52" width="136" height="28" as="geometry" />
        </mxCell>
        <mxCell id="hhsTLVZIg2dpdE67HO9M-47" value="" style="line;html=1;strokeWidth=1;align=left;verticalAlign=middle;spacingTop=-1;spacingLeft=3;spacingRight=3;rotatable=0;labelPosition=right;points=[];portConstraint=eastwest;" parent="hhsTLVZIg2dpdE67HO9M-44" vertex="1">
          <mxGeometry y="80" width="136" height="20" as="geometry" />
        </mxCell>
        <mxCell id="hhsTLVZIg2dpdE67HO9M-48" value="*Charity_id (PK) : Int" style="text;align=left;verticalAlign=top;spacingLeft=4;spacingRight=4;overflow=hidden;rotatable=0;points=[[0,0.5],[1,0.5]];portConstraint=eastwest;" parent="hhsTLVZIg2dpdE67HO9M-44" vertex="1">
          <mxGeometry y="100" width="136" height="26" as="geometry" />
        </mxCell>
        <mxCell id="hhsTLVZIg2dpdE67HO9M-51" value="Notification" style="swimlane;fontStyle=2;align=center;verticalAlign=top;childLayout=stackLayout;horizontal=1;startSize=26;horizontalStack=0;resizeParent=1;resizeLast=0;collapsible=1;marginBottom=0;rounded=0;shadow=0;strokeWidth=1;" parent="WIyWlLk6GJQsqaUBKTNV-1" vertex="1">
          <mxGeometry x="860" y="750" width="140" height="220" as="geometry">
            <mxRectangle x="324" y="240" width="160" height="26" as="alternateBounds" />
          </mxGeometry>
        </mxCell>
        <mxCell id="hhsTLVZIg2dpdE67HO9M-52" value="Type : VARCHAR" style="text;align=left;verticalAlign=top;spacingLeft=4;spacingRight=4;overflow=hidden;rotatable=0;points=[[0,0.5],[1,0.5]];portConstraint=eastwest;rounded=0;shadow=0;html=0;" parent="hhsTLVZIg2dpdE67HO9M-51" vertex="1">
          <mxGeometry y="26" width="140" height="26" as="geometry" />
        </mxCell>
        <mxCell id="hhsTLVZIg2dpdE67HO9M-53" value="&amp;nbsp;Message : VACHAR" style="rounded=0;whiteSpace=wrap;html=1;align=left;" parent="hhsTLVZIg2dpdE67HO9M-51" vertex="1">
          <mxGeometry y="52" width="140" height="28" as="geometry" />
        </mxCell>
        <mxCell id="hhsTLVZIg2dpdE67HO9M-57" value="&amp;nbsp;Date : DATE" style="rounded=0;whiteSpace=wrap;html=1;align=left;" parent="hhsTLVZIg2dpdE67HO9M-51" vertex="1">
          <mxGeometry y="80" width="140" height="28" as="geometry" />
        </mxCell>
        <mxCell id="hhsTLVZIg2dpdE67HO9M-54" value="" style="line;html=1;strokeWidth=1;align=left;verticalAlign=middle;spacingTop=-1;spacingLeft=3;spacingRight=3;rotatable=0;labelPosition=right;points=[];portConstraint=eastwest;" parent="hhsTLVZIg2dpdE67HO9M-51" vertex="1">
          <mxGeometry y="108" width="140" height="42" as="geometry" />
        </mxCell>
        <mxCell id="hhsTLVZIg2dpdE67HO9M-55" value="*NotificationId (PK) : Int" style="text;align=left;verticalAlign=top;spacingLeft=4;spacingRight=4;overflow=hidden;rotatable=0;points=[[0,0.5],[1,0.5]];portConstraint=eastwest;" parent="hhsTLVZIg2dpdE67HO9M-51" vertex="1">
          <mxGeometry y="150" width="140" height="26" as="geometry" />
        </mxCell>
        <mxCell id="hhsTLVZIg2dpdE67HO9M-99" value="*CustomerId(FK) : Int" style="text;align=left;verticalAlign=top;spacingLeft=4;spacingRight=4;overflow=hidden;rotatable=0;points=[[0,0.5],[1,0.5]];portConstraint=eastwest;" parent="hhsTLVZIg2dpdE67HO9M-51" vertex="1">
          <mxGeometry y="176" width="140" height="26" as="geometry" />
        </mxCell>
        <mxCell id="hhsTLVZIg2dpdE67HO9M-58" value="BillingAndPayment" style="swimlane;fontStyle=2;align=center;verticalAlign=top;childLayout=stackLayout;horizontal=1;startSize=26;horizontalStack=0;resizeParent=1;resizeLast=0;collapsible=1;marginBottom=0;rounded=0;shadow=0;strokeWidth=1;" parent="WIyWlLk6GJQsqaUBKTNV-1" vertex="1">
          <mxGeometry x="580" y="750" width="160" height="216" as="geometry">
            <mxRectangle x="324" y="240" width="160" height="26" as="alternateBounds" />
          </mxGeometry>
        </mxCell>
        <mxCell id="hhsTLVZIg2dpdE67HO9M-59" value="Amount : Float" style="text;align=left;verticalAlign=top;spacingLeft=4;spacingRight=4;overflow=hidden;rotatable=0;points=[[0,0.5],[1,0.5]];portConstraint=eastwest;rounded=0;shadow=0;html=0;" parent="hhsTLVZIg2dpdE67HO9M-58" vertex="1">
          <mxGeometry y="26" width="160" height="26" as="geometry" />
        </mxCell>
        <mxCell id="hhsTLVZIg2dpdE67HO9M-60" value="PaymentMethod : VARCHAR" style="rounded=0;whiteSpace=wrap;html=1;align=left;" parent="hhsTLVZIg2dpdE67HO9M-58" vertex="1">
          <mxGeometry y="52" width="160" height="28" as="geometry" />
        </mxCell>
        <mxCell id="hhsTLVZIg2dpdE67HO9M-61" value="&amp;nbsp;PaymentDate : DATE" style="rounded=0;whiteSpace=wrap;html=1;align=left;" parent="hhsTLVZIg2dpdE67HO9M-58" vertex="1">
          <mxGeometry y="80" width="160" height="28" as="geometry" />
        </mxCell>
        <mxCell id="hhsTLVZIg2dpdE67HO9M-62" value="" style="line;html=1;strokeWidth=1;align=left;verticalAlign=middle;spacingTop=-1;spacingLeft=3;spacingRight=3;rotatable=0;labelPosition=right;points=[];portConstraint=eastwest;" parent="hhsTLVZIg2dpdE67HO9M-58" vertex="1">
          <mxGeometry y="108" width="160" height="42" as="geometry" />
        </mxCell>
        <mxCell id="hhsTLVZIg2dpdE67HO9M-63" value="*BillingId (PK) : Int" style="text;align=left;verticalAlign=top;spacingLeft=4;spacingRight=4;overflow=hidden;rotatable=0;points=[[0,0.5],[1,0.5]];portConstraint=eastwest;" parent="hhsTLVZIg2dpdE67HO9M-58" vertex="1">
          <mxGeometry y="150" width="160" height="26" as="geometry" />
        </mxCell>
        <mxCell id="hhsTLVZIg2dpdE67HO9M-64" value="*CustomerId(FK): Int" style="text;align=left;verticalAlign=top;spacingLeft=4;spacingRight=4;overflow=hidden;rotatable=0;points=[[0,0.5],[1,0.5]];portConstraint=eastwest;" parent="hhsTLVZIg2dpdE67HO9M-58" vertex="1">
          <mxGeometry y="176" width="160" height="40" as="geometry" />
        </mxCell>
        <mxCell id="hhsTLVZIg2dpdE67HO9M-66" value="BillCollection" style="swimlane;fontStyle=2;align=center;verticalAlign=top;childLayout=stackLayout;horizontal=1;startSize=26;horizontalStack=0;resizeParent=1;resizeLast=0;collapsible=1;marginBottom=0;rounded=0;shadow=0;strokeWidth=1;" parent="WIyWlLk6GJQsqaUBKTNV-1" vertex="1">
          <mxGeometry x="110" y="1140" width="200" height="200" as="geometry">
            <mxRectangle x="324" y="240" width="160" height="26" as="alternateBounds" />
          </mxGeometry>
        </mxCell>
        <mxCell id="hhsTLVZIg2dpdE67HO9M-67" value="Date : DATE" style="text;align=left;verticalAlign=top;spacingLeft=4;spacingRight=4;overflow=hidden;rotatable=0;points=[[0,0.5],[1,0.5]];portConstraint=eastwest;rounded=0;shadow=0;html=0;" parent="hhsTLVZIg2dpdE67HO9M-66" vertex="1">
          <mxGeometry y="26" width="200" height="26" as="geometry" />
        </mxCell>
        <mxCell id="hhsTLVZIg2dpdE67HO9M-68" value="&amp;nbsp;EndLocation ; VARCHAR" style="rounded=0;whiteSpace=wrap;html=1;align=left;" parent="hhsTLVZIg2dpdE67HO9M-66" vertex="1">
          <mxGeometry y="52" width="200" height="28" as="geometry" />
        </mxCell>
        <mxCell id="hhsTLVZIg2dpdE67HO9M-69" value="" style="line;html=1;strokeWidth=1;align=left;verticalAlign=middle;spacingTop=-1;spacingLeft=3;spacingRight=3;rotatable=0;labelPosition=right;points=[];portConstraint=eastwest;" parent="hhsTLVZIg2dpdE67HO9M-66" vertex="1">
          <mxGeometry y="80" width="200" height="20" as="geometry" />
        </mxCell>
        <mxCell id="hhsTLVZIg2dpdE67HO9M-70" value="*CollectionId (PK) : Int" style="text;align=left;verticalAlign=top;spacingLeft=4;spacingRight=4;overflow=hidden;rotatable=0;points=[[0,0.5],[1,0.5]];portConstraint=eastwest;" parent="hhsTLVZIg2dpdE67HO9M-66" vertex="1">
          <mxGeometry y="100" width="200" height="26" as="geometry" />
        </mxCell>
        <mxCell id="hhsTLVZIg2dpdE67HO9M-71" value="*BinId(FK): Int" style="text;align=left;verticalAlign=top;spacingLeft=4;spacingRight=4;overflow=hidden;rotatable=0;points=[[0,0.5],[1,0.5]];portConstraint=eastwest;" parent="hhsTLVZIg2dpdE67HO9M-66" vertex="1">
          <mxGeometry y="126" width="200" height="34" as="geometry" />
        </mxCell>
        <mxCell id="hhsTLVZIg2dpdE67HO9M-72" value="*Status(Full,Half,Empty): VARCHAR" style="text;align=left;verticalAlign=top;spacingLeft=4;spacingRight=4;overflow=hidden;rotatable=0;points=[[0,0.5],[1,0.5]];portConstraint=eastwest;" parent="hhsTLVZIg2dpdE67HO9M-66" vertex="1">
          <mxGeometry y="160" width="200" height="34" as="geometry" />
        </mxCell>
        <mxCell id="hhsTLVZIg2dpdE67HO9M-73" value="DropOff" style="swimlane;fontStyle=2;align=center;verticalAlign=top;childLayout=stackLayout;horizontal=1;startSize=26;horizontalStack=0;resizeParent=1;resizeLast=0;collapsible=1;marginBottom=0;rounded=0;shadow=0;strokeWidth=1;" parent="WIyWlLk6GJQsqaUBKTNV-1" vertex="1">
          <mxGeometry x="140" y="758" width="130" height="216" as="geometry">
            <mxRectangle x="324" y="240" width="160" height="26" as="alternateBounds" />
          </mxGeometry>
        </mxCell>
        <mxCell id="hhsTLVZIg2dpdE67HO9M-74" value="Photo: Blob" style="text;align=left;verticalAlign=top;spacingLeft=4;spacingRight=4;overflow=hidden;rotatable=0;points=[[0,0.5],[1,0.5]];portConstraint=eastwest;rounded=0;shadow=0;html=0;" parent="hhsTLVZIg2dpdE67HO9M-73" vertex="1">
          <mxGeometry y="26" width="130" height="26" as="geometry" />
        </mxCell>
        <mxCell id="hhsTLVZIg2dpdE67HO9M-75" value="&amp;nbsp;Message : VACHAR" style="rounded=0;whiteSpace=wrap;html=1;align=left;" parent="hhsTLVZIg2dpdE67HO9M-73" vertex="1">
          <mxGeometry y="52" width="130" height="28" as="geometry" />
        </mxCell>
        <mxCell id="hhsTLVZIg2dpdE67HO9M-76" value="&amp;nbsp;DropDate : DATE" style="rounded=0;whiteSpace=wrap;html=1;align=left;" parent="hhsTLVZIg2dpdE67HO9M-73" vertex="1">
          <mxGeometry y="80" width="130" height="28" as="geometry" />
        </mxCell>
        <mxCell id="hhsTLVZIg2dpdE67HO9M-77" value="" style="line;html=1;strokeWidth=1;align=left;verticalAlign=middle;spacingTop=-1;spacingLeft=3;spacingRight=3;rotatable=0;labelPosition=right;points=[];portConstraint=eastwest;" parent="hhsTLVZIg2dpdE67HO9M-73" vertex="1">
          <mxGeometry y="108" width="130" height="42" as="geometry" />
        </mxCell>
        <mxCell id="hhsTLVZIg2dpdE67HO9M-78" value="*DropId (PK) : Int" style="text;align=left;verticalAlign=top;spacingLeft=4;spacingRight=4;overflow=hidden;rotatable=0;points=[[0,0.5],[1,0.5]];portConstraint=eastwest;" parent="hhsTLVZIg2dpdE67HO9M-73" vertex="1">
          <mxGeometry y="150" width="130" height="26" as="geometry" />
        </mxCell>
        <mxCell id="hhsTLVZIg2dpdE67HO9M-79" value="*CustomerId(FK): Int" style="text;align=left;verticalAlign=top;spacingLeft=4;spacingRight=4;overflow=hidden;rotatable=0;points=[[0,0.5],[1,0.5]];portConstraint=eastwest;" parent="hhsTLVZIg2dpdE67HO9M-73" vertex="1">
          <mxGeometry y="176" width="130" height="40" as="geometry" />
        </mxCell>
        <mxCell id="hhsTLVZIg2dpdE67HO9M-82" value="Made by" style="text;html=1;align=center;verticalAlign=middle;whiteSpace=wrap;rounded=0;" parent="WIyWlLk6GJQsqaUBKTNV-1" vertex="1">
          <mxGeometry x="580" y="350" width="60" height="30" as="geometry" />
        </mxCell>
        <mxCell id="hhsTLVZIg2dpdE67HO9M-86" style="edgeStyle=orthogonalEdgeStyle;rounded=0;orthogonalLoop=1;jettySize=auto;html=1;entryX=0.422;entryY=0.015;entryDx=0;entryDy=0;entryPerimeter=0;" parent="WIyWlLk6GJQsqaUBKTNV-1" source="zkfFHV4jXpPFQw0GAbJ--3" target="hhsTLVZIg2dpdE67HO9M-28" edge="1">
          <mxGeometry relative="1" as="geometry" />
        </mxCell>
        <mxCell id="hhsTLVZIg2dpdE67HO9M-87" value="Owns" style="text;html=1;align=center;verticalAlign=middle;whiteSpace=wrap;rounded=0;" parent="WIyWlLk6GJQsqaUBKTNV-1" vertex="1">
          <mxGeometry x="340" y="585" width="60" height="30" as="geometry" />
        </mxCell>
        <mxCell id="hhsTLVZIg2dpdE67HO9M-89" style="edgeStyle=orthogonalEdgeStyle;rounded=0;orthogonalLoop=1;jettySize=auto;html=1;entryX=0.433;entryY=-0.004;entryDx=0;entryDy=0;entryPerimeter=0;" parent="WIyWlLk6GJQsqaUBKTNV-1" source="zkfFHV4jXpPFQw0GAbJ--0" target="hhsTLVZIg2dpdE67HO9M-58" edge="1">
          <mxGeometry relative="1" as="geometry" />
        </mxCell>
        <mxCell id="hhsTLVZIg2dpdE67HO9M-90" value="Recieves" style="text;html=1;align=center;verticalAlign=middle;whiteSpace=wrap;rounded=0;" parent="WIyWlLk6GJQsqaUBKTNV-1" vertex="1">
          <mxGeometry x="594" y="690" width="60" height="30" as="geometry" />
        </mxCell>
        <mxCell id="hhsTLVZIg2dpdE67HO9M-92" value="Recieves" style="text;html=1;align=center;verticalAlign=middle;whiteSpace=wrap;rounded=0;" parent="WIyWlLk6GJQsqaUBKTNV-1" vertex="1">
          <mxGeometry x="810" y="540" width="60" height="30" as="geometry" />
        </mxCell>
        <mxCell id="hhsTLVZIg2dpdE67HO9M-93" style="edgeStyle=orthogonalEdgeStyle;rounded=0;orthogonalLoop=1;jettySize=auto;html=1;entryX=0;entryY=0.5;entryDx=0;entryDy=0;" parent="WIyWlLk6GJQsqaUBKTNV-1" source="hhsTLVZIg2dpdE67HO9M-27" target="hhsTLVZIg2dpdE67HO9M-70" edge="1">
          <mxGeometry relative="1" as="geometry">
            <Array as="points">
              <mxPoint x="-20" y="1253" />
            </Array>
          </mxGeometry>
        </mxCell>
        <mxCell id="hhsTLVZIg2dpdE67HO9M-94" value="Collects" style="text;html=1;align=center;verticalAlign=middle;whiteSpace=wrap;rounded=0;" parent="WIyWlLk6GJQsqaUBKTNV-1" vertex="1">
          <mxGeometry x="-90" y="1060" width="60" height="30" as="geometry" />
        </mxCell>
        <mxCell id="hhsTLVZIg2dpdE67HO9M-97" style="edgeStyle=orthogonalEdgeStyle;rounded=0;orthogonalLoop=1;jettySize=auto;html=1;entryX=0.485;entryY=1.025;entryDx=0;entryDy=0;entryPerimeter=0;" parent="WIyWlLk6GJQsqaUBKTNV-1" source="hhsTLVZIg2dpdE67HO9M-66" target="hhsTLVZIg2dpdE67HO9M-79" edge="1">
          <mxGeometry relative="1" as="geometry" />
        </mxCell>
        <mxCell id="hhsTLVZIg2dpdE67HO9M-98" value="Associated with" style="text;html=1;align=center;verticalAlign=middle;whiteSpace=wrap;rounded=0;" parent="WIyWlLk6GJQsqaUBKTNV-1" vertex="1">
          <mxGeometry x="140" y="1040" width="60" height="30" as="geometry" />
        </mxCell>
        <mxCell id="hhsTLVZIg2dpdE67HO9M-100" style="edgeStyle=orthogonalEdgeStyle;rounded=0;orthogonalLoop=1;jettySize=auto;html=1;entryX=0.91;entryY=-0.02;entryDx=0;entryDy=0;entryPerimeter=0;" parent="WIyWlLk6GJQsqaUBKTNV-1" source="hhsTLVZIg2dpdE67HO9M-28" target="hhsTLVZIg2dpdE67HO9M-66" edge="1">
          <mxGeometry relative="1" as="geometry" />
        </mxCell>
        <mxCell id="hhsTLVZIg2dpdE67HO9M-101" value="Has" style="text;html=1;align=center;verticalAlign=middle;whiteSpace=wrap;rounded=0;" parent="WIyWlLk6GJQsqaUBKTNV-1" vertex="1">
          <mxGeometry x="280" y="1010" width="60" height="30" as="geometry" />
        </mxCell>
        <mxCell id="hhsTLVZIg2dpdE67HO9M-103" style="edgeStyle=orthogonalEdgeStyle;rounded=0;orthogonalLoop=1;jettySize=auto;html=1;entryX=0.75;entryY=1;entryDx=0;entryDy=0;" parent="WIyWlLk6GJQsqaUBKTNV-1" source="hhsTLVZIg2dpdE67HO9M-71" target="hhsTLVZIg2dpdE67HO9M-28" edge="1">
          <mxGeometry relative="1" as="geometry" />
        </mxCell>
        <mxCell id="hhsTLVZIg2dpdE67HO9M-104" value="Collected In" style="text;html=1;align=center;verticalAlign=middle;whiteSpace=wrap;rounded=0;" parent="WIyWlLk6GJQsqaUBKTNV-1" vertex="1">
          <mxGeometry x="440" y="1090" width="60" height="30" as="geometry" />
        </mxCell>
        <mxCell id="hhsTLVZIg2dpdE67HO9M-106" style="edgeStyle=orthogonalEdgeStyle;rounded=0;orthogonalLoop=1;jettySize=auto;html=1;entryX=0;entryY=0.75;entryDx=0;entryDy=0;" parent="WIyWlLk6GJQsqaUBKTNV-1" source="hhsTLVZIg2dpdE67HO9M-18" target="hhsTLVZIg2dpdE67HO9M-46" edge="1">
          <mxGeometry relative="1" as="geometry" />
        </mxCell>
        <mxCell id="hhsTLVZIg2dpdE67HO9M-107" value="Donated by" style="text;html=1;align=center;verticalAlign=middle;whiteSpace=wrap;rounded=0;" parent="WIyWlLk6GJQsqaUBKTNV-1" vertex="1">
          <mxGeometry x="710" y="130" width="60" height="30" as="geometry" />
        </mxCell>
        <mxCell id="hhsTLVZIg2dpdE67HO9M-109" value="Follows" style="text;html=1;align=center;verticalAlign=middle;whiteSpace=wrap;rounded=0;" parent="WIyWlLk6GJQsqaUBKTNV-1" vertex="1">
          <mxGeometry x="20" y="630" width="60" height="30" as="geometry" />
        </mxCell>
        <mxCell id="hnXt5Jd46_y9rEdgMFs5-0" style="edgeStyle=orthogonalEdgeStyle;rounded=0;orthogonalLoop=1;jettySize=auto;html=1;entryX=0.5;entryY=0;entryDx=0;entryDy=0;" edge="1" parent="WIyWlLk6GJQsqaUBKTNV-1" source="zkfFHV4jXpPFQw0GAbJ--3" target="hhsTLVZIg2dpdE67HO9M-51">
          <mxGeometry relative="1" as="geometry" />
        </mxCell>
      </root>
    </mxGraphModel>
  </diagram>
</mxfile>
